<?xml version="1.0" standalone="no"?>
<!DOCTYPE svg PUBLIC "-//W3C//DTD SVG 20010904//EN"
 "http://www.w3.org/TR/2001/REC-SVG-20010904/DTD/svg10.dtd">
<svg version="1.0" xmlns="http://www.w3.org/2000/svg"
 width="700.000000pt" height="700.000000pt" viewBox="0 0 700.000000 700.000000"
 preserveAspectRatio="xMidYMid meet">
<metadata>
Created by potrace 1.14, written by Peter Selinger 2001-2017
</metadata>
<g transform="translate(0.000000,700.000000) scale(0.100000,-0.100000)"
fill="#000000" stroke="none">
<path d="M3130 6990 c-50 -7 -99 -13 -185 -24 -54 -7 -238 -47 -330 -71 -234
-61 -402 -123 -655 -243 -243 -114 -623 -371 -801 -542 -199 -189 -271 -267
-412 -439 -82 -101 -227 -321 -314 -476 -45 -81 -143 -280 -143 -290 0 -3 -11
-29 -25 -59 -14 -30 -25 -61 -25 -68 0 -8 -4 -18 -9 -23 -12 -13 -84 -234
-116 -355 -24 -94 -58 -249 -69 -325 -35 -221 -41 -309 -40 -575 1 -295 5
-349 59 -670 3 -14 20 -89 40 -167 213 -863 750 -1610 1511 -2103 60 -38 114
-70 119 -70 7 0 10 652 10 1963 0 1079 3 1987 6 2017 45 367 295 657 649 751
120 32 329 32 445 0 306 -83 539 -313 622 -611 12 -47 23 -100 23 -119 0 -31
11 -37 16 -8 11 73 17 100 34 153 82 267 306 490 573 573 93 28 145 35 262 36
120 0 179 -8 265 -35 260 -84 460 -273 560 -529 80 -206 67 -476 -35 -682
-107 -217 -310 -388 -540 -454 -94 -27 -93 -27 -230 -30 -113 -4 -142 -1 -225
20 -209 55 -373 165 -508 341 -70 92 -140 267 -155 389 -2 17 -5 -935 -6
-2114 l-1 -2144 153 7 c83 3 161 8 172 10 11 2 54 7 95 11 41 4 84 9 95 11 11
2 47 9 80 14 56 9 77 13 130 24 128 26 451 121 538 160 18 7 73 31 122 52 453
192 894 511 1227 886 36 40 72 82 81 93 9 11 32 40 51 63 231 282 453 692 577
1067 39 119 113 403 124 480 3 23 7 52 10 65 3 14 10 63 15 110 6 47 13 103
16 125 10 64 12 502 4 590 -15 156 -22 211 -41 325 -80 475 -259 927 -532
1340 -89 135 -129 188 -253 335 -101 120 -288 310 -374 380 -25 21 -47 40 -50
44 -11 15 -252 192 -333 244 -209 137 -461 264 -682 345 -149 54 -362 118
-460 138 -298 60 -358 66 -730 69 -192 2 -375 0 -405 -5z"/>
</g>
</svg>
